<svg xmlns="http://www.w3.org/2000/svg" viewBox="0 0 40 40">
	<defs>
		<style>.cls-1{fill:#fff;}.cls-2{fill:#d2dae3;}</style>
	</defs>
	<title>user_na</title>
	<g id="Слой_2" data-name="Слой 2">
		<g id="Слой_1-2" data-name="Слой 1">
			<g id="Help-files">
				<g id="account-hover">
					<g id="Group-5">
						<g id="_002-user-1" data-name="002-user-1">
							<path id="Shape" class="cls-2" d="M31.75,36.26q-.41.29-.83.56l-.39.25c-.37.22-.74.44-1.13.64l-.25.13A20.13,20.13,0,0,1,26.41,39l-.1,0q-.74.24-1.49.42h0c-.51.12-1,.22-1.54.31h0c-.49.08-1,.13-1.47.18l-.26,0c-.49,0-1,.06-1.46.06s-1,0-1.48-.06l-.25,0c-.5,0-1-.1-1.48-.18h-.07a20.17,20.17,0,0,1-3-.75l-.09,0q-.74-.25-1.46-.55h0c-.45-.19-.9-.4-1.33-.63l-.17-.09c-.4-.21-.79-.44-1.18-.67l-.34-.21c-.35-.23-.71-.47-1-.72L8,36l.08,0,6.18-3.31A3.24,3.24,0,0,0,16,29.81V27l-.18-.21a12.73,12.73,0,0,1-2.35-4.77l-.07-.3-.27-.17a1.27,1.27,0,0,1-.6-1.07V17.8a1.24,1.24,0,0,1,.44-.94l.26-.23V12.25a4.56,4.56,0,0,1,1.09-3.35C15.42,7.64,17.36,7,20.05,7s4.61.64,5.74,1.89a4.64,4.64,0,0,1,1.1,3.36v4.38l.26.23a1.24,1.24,0,0,1,.44.94v2.72a1.29,1.29,0,0,1-.92,1.21l-.39.12-.13.38a14.09,14.09,0,0,1-2,3.86c-.2.28-.4.54-.58.73l-.19.22v2.84a3.22,3.22,0,0,0,1.83,2.9L31.87,36l.13.06Z"/>
						</g>
					</g>
				</g>
			</g>
		</g>
	</g>
</svg>